<?xml version="1.0" encoding="UTF-8"?>
<svg id="Layer_2" data-name="Layer 2" xmlns="http://www.w3.org/2000/svg" viewBox="0 0 190.2 106.89">
  <defs>
    <style>
      .cls-1 {
        fill: #fff;
      }
    </style>
  </defs>
  <g id="Layer_1-2" data-name="Layer 1">
    <path class="cls-1" d="m61.33,0v106.89c-4.21-1.61-11.92-13.9-14.79-22.26-.27-.8-1.54-.67-2.08-.01-1.87,2.28-3.53,4.15-5.81,6-10.96,8.93-11.2-53.49-18.97-25.72-5.98,21.34-10.03,37.66-19.68,41.89V0h61.33Z"/>
    <g>
      <path class="cls-1" d="m84.94,46.18V10.71h15.73c9.87,0,15.82,6.35,15.82,17.76s-5.46,17.71-15.33,17.71h-16.22Zm14.63-7.29c5.56,0,7.79-3.97,7.79-10.42s-2.23-10.47-7.79-10.47h-5.7v20.88h5.7Z"/>
      <path class="cls-1" d="m121.5,46.18l13.49-35.47h8.98l13.59,35.47h-9.77l-2.28-7.39h-12.15l-2.28,7.39h-9.57Zm13.89-14.19h8.14l-4.02-13.1h-.1l-4.02,13.1Z"/>
      <path class="cls-1" d="m165.2,46.18V10.71h8.93v28.18h15.77v7.29h-24.7Z"/>
      <path class="cls-1" d="m84.94,96.18v-35.47h26.89v7.29h-17.96v6.3h15.48v7.29h-15.48v7.29h18.25v7.29h-27.18Z"/>
      <path class="cls-1" d="m121.75,96.18v-35.47h8.93l12.4,21.08h.1v-21.08h8.93v35.47h-8.93l-12.4-21.08h-.1v21.08h-8.93Z"/>
      <path class="cls-1" d="m163.02,96.18v-35.47h26.89v7.29h-17.96v6.3h15.48v7.29h-15.48v7.29h18.25v7.29h-27.18Z"/>
    </g>
  </g>
</svg>