<svg width="11" height="12" viewBox="0 0 11 12" fill="none" xmlns="http://www.w3.org/2000/svg">
<path d="M8.4375 1.90215C7.86562 1.33027 6.9375 1.33027 6.36562 1.90215L2.05313 6.21465C1.06641 7.20137 1.06641 8.7998 2.05313 9.78652C3.03984 10.7732 4.63828 10.7732 5.625 9.78652L9.1875 6.22402C9.44297 5.96855 9.86016 5.96855 10.1156 6.22402C10.3711 6.47949 10.3711 6.89668 10.1156 7.15215L6.55312 10.7146C5.05312 12.2146 2.625 12.2146 1.125 10.7146C-0.375 9.21465 -0.375 6.78652 1.125 5.28652L5.4375 0.974023C6.52266 -0.111133 8.28047 -0.111133 9.36562 0.974023C10.4508 2.05918 10.4508 3.81699 9.36562 4.90215L5.24063 9.02715C4.57031 9.69746 3.48281 9.69746 2.8125 9.02715C2.14219 8.35684 2.14219 7.26934 2.8125 6.59902L6.1875 3.22402C6.44297 2.96855 6.86016 2.96855 7.11562 3.22402C7.37109 3.47949 7.37109 3.89668 7.11562 4.15215L3.74063 7.52715C3.58359 7.68418 3.58359 7.94199 3.74063 8.09902C3.89766 8.25605 4.15547 8.25605 4.3125 8.09902L8.4375 3.97402C9.00937 3.40215 9.00937 2.47402 8.4375 1.90215Z" fill="white"/>
</svg>
